<?xml version="1.0" encoding="UTF-8"?>
<svg width="532px" height="166px" viewBox="0 0 532 166" version="1.1" xmlns="http://www.w3.org/2000/svg" xmlns:xlink="http://www.w3.org/1999/xlink">
    <!-- Generator: Sketch 50.2 (55047) - http://www.bohemiancoding.com/sketch -->
    <title>le-wagon-color</title>
    <desc>Created with Sketch.</desc>
    <defs></defs>
    <g id="Page-1" stroke="none" stroke-width="1" fill="none" fill-rule="evenodd">
        <g id="logo" transform="translate(-374.000000, -138.000000)">
            <g id="le-wagon-color" transform="translate(374.000000, 138.000000)">
                <g id="nest">
                    <circle id="bg" fill="#FD1015" cx="83" cy="83" r="83"></circle>
                    <path d="M101.029636,104.150045 C100.957244,104.631149 100.542106,105 100.040817,105 C100.027146,105 100.013538,104.999726 100,104.999182 L100,105 L64,105 C63.4477153,105 63,104.552285 63,104 L62.9589262,104 C62.4507753,97.8404695 57.2906638,93 51,93 C44.7093362,93 39.5492247,97.8404695 39.0410738,104 L39.0405884,104 C39.0405884,104.002043 39.0405823,104.004085 39.04057,104.006125 C39.0367224,104.053055 39.0331449,104.100061 39.0298389,104.147143 C38.9586834,104.629665 38.5428841,105 38.0405884,105 C38.0269939,105 38.0134627,104.999729 38,104.999191 L38,105 L35,105 C34.4477153,105 34,104.552285 34,104 L34,102 C34,101.447715 34.4477153,101 35,101 L34.9999976,88 C35,87.4477153 35.4477153,87 36,87 L113.010693,87 C118.355532,87 123.155951,89.330937 126.450859,93.0317203 C126.699097,93.3105364 127.011251,93.7003163 127.38732,94.2010599 C127.765086,94.7040624 128.357492,95.0000232 128.986554,95.0000232 L128.986554,95 L130.038452,95 C130.779071,95 131.768436,95.0000035 133.006546,95.0000105 C134.108105,95.0035399 135,95.8976134 135,97 L135,103 C135,104.104569 134.104569,105 133,105 L126,105 L126,104.999209 C125.986688,104.999735 125.97331,105 125.959869,105 C125.455423,105 125.038215,104.626487 124.969724,104.140939 C124.966689,104.098039 124.963429,104.055202 124.959945,104.012428 C124.959895,104.008291 124.959869,104.004148 124.959869,104 L124.958926,104 C124.450775,97.8404695 119.290664,93 113,93 C106.709336,93 101.549225,97.8404695 101.041074,104 L101.040817,104 C101.040817,104.001058 101.040816,104.002117 101.040812,104.003174 C101.036793,104.052049 101.033067,104.101006 101.029636,104.150045 Z M133,90 C133,90.5522847 132.552285,91 132,91 L130.427692,91 C130.142208,91 129.870334,90.8779875 129.680568,90.6647031 L129.680596,90.6646776 C129.024553,89.9273294 128.505191,89.3775777 128.122508,89.0154225 C124.182429,85.2866944 118.863604,83 113.010693,83 L36,83 C35.4477153,83 35,82.5522847 35,82 L34.9999921,58.736075 C34.9999959,54.2482635 38.3062018,50.4462567 42.7505568,49.8232305 C56.1768926,47.9410768 68.8170064,47 80.6708984,47 C101.835449,47 110.064262,48.6846001 118,53 C122.832355,55.6278014 127.42235,61.9736051 131.769986,72.0374111 C132.581414,73.9156803 133,75.940097 133,77.9861444 L133,90 Z M34.9999968,84 L35,84 L35,86 L34.9999972,86 L34.9999968,84 Z M41,58 C40.4477153,58 40,58.4477153 40,59 L40,74 C40,74.5522847 40.4477153,75 41,75 L56,75 C56.5522847,75 57,74.5522847 57,74 L57,59 C57,58.4477153 56.5522847,58 56,58 L41,58 Z M83,58 C82.4477153,58 82,58.4477153 82,59 L82,74 C82,74.5522847 82.4477153,75 83,75 L98,75 C98.5522847,75 99,74.5522847 99,74 L99,59 C99,58.4477153 98.5522847,58 98,58 L83,58 Z M62,58 C61.4477153,58 61,58.4477153 61,59 L61,74 C61,74.5522847 61.4477153,75 62,75 L77,75 C77.5522847,75 78,74.5522847 78,74 L78,59 C78,58.4477153 77.5522847,58 77,58 L62,58 Z M103.999982,57.9999992 C103.447697,57.9999992 102.999982,58.4477144 102.999982,58.9999992 L102.999983,74 C102.999983,74.5522847 103.447698,75 103.999983,75 L127.060047,75 C127.182584,75 127.304078,74.9774779 127.418473,74.9335561 C127.934046,74.7356028 128.191528,74.1571751 127.993575,73.6416015 L127.993601,73.6415916 C126.89762,70.7870862 125.630873,68.1617233 124.193359,65.7655029 C123.977296,65.4053417 123.778638,65.0482724 123.597399,64.6942888 C121.493304,60.5850578 117.265424,58.0000062 112.648824,58.0000039 L103.999983,57.9999997 Z M51,113 C46.581722,113 43,109.418278 43,105 C43,100.581722 46.581722,97 51,97 C55.418278,97 59,100.581722 59,105 C59,109.418278 55.418278,113 51,113 Z M51,109 C53.209139,109 55,107.209139 55,105 C55,102.790861 53.209139,101 51,101 C48.790861,101 47,102.790861 47,105 C47,107.209139 48.790861,109 51,109 Z M113,113 C108.581722,113 105,109.418278 105,105 C105,100.581722 108.581722,97 113,97 C117.418278,97 121,100.581722 121,105 C121,109.418278 117.418278,113 113,113 Z M113,109 C115.209139,109 117,107.209139 117,105 C117,102.790861 115.209139,101 113,101 C110.790861,101 109,102.790861 109,105 C109,107.209139 110.790861,109 113,109 Z" id="van" fill="#FFFFFF"></path>
                </g>
                <path d="M218.007196,79.909473 L239.746407,79.909473 C237.875025,75.769701 233.711997,72.8894007 228.8768,72.8894007 C224.041603,72.8894007 219.878575,75.7697012 218.007196,79.909473 Z M250.827763,89.035567 C250.585205,89.4552279 250.131845,89.7375742 249.612595,89.7375742 L218.007193,89.7375742 C219.878575,93.8773462 224.041603,96.7576465 228.8768,96.7576465 C231.19724,96.7576465 233.362872,96.0942855 235.194701,94.9467088 C235.602718,94.691101 236.117726,94.2922257 236.739726,93.750083 C237.234927,93.3184472 237.903077,93.1429381 238.546248,93.2755382 L246.772566,94.971536 C247.531397,95.1279813 248.019833,95.8704726 247.863519,96.6299367 C247.829086,96.7972313 247.76444,96.9568335 247.672759,97.1009015 C247.588772,97.2328779 247.511145,97.3512153 247.439877,97.4559137 C245.402917,100.448378 242.662453,102.922752 239.456623,104.640699 C236.30447,106.329881 232.702403,107.287755 228.8768,107.287755 C216.480487,107.287755 206.431289,97.230176 206.431289,84.8235236 C206.431289,72.4168712 216.480487,62.3592923 228.8768,62.3592923 C241.273114,62.3592923 251.322311,72.4168712 251.322311,84.8235236 C251.322311,86.2631834 251.186997,87.6712127 250.928404,89.035567 L250.827763,89.035567 Z M191,104.429195 L191,46.049937 C191,45.3593963 191.485523,44.7640351 192.161947,44.6251251 L199.77419,43.0618817 C200.561092,42.9002842 201.330002,43.4071936 201.4916,44.1940954 C201.511371,44.2903731 201.521333,44.3884068 201.521333,44.4866936 L201.521333,104.429195 C201.521333,105.232518 200.870111,105.88374 200.066788,105.88374 L192.454545,105.88374 C191.651222,105.88374 191,105.232518 191,104.429195 Z M295.552574,105.88374 L287.106433,105.88374 C286.48449,105.88374 285.931361,105.488309 285.730129,104.89982 L272.321865,65.6884776 C272.061946,64.9283656 272.467432,64.1014669 273.227544,63.8415476 C273.379044,63.7897425 273.538058,63.7633067 273.69817,63.7633067 L281.145035,63.7633067 C281.766977,63.7633067 282.320106,64.1587387 282.521339,64.7472268 L290.641351,88.4935221 C290.771311,88.8735781 291.18476,89.0763213 291.564816,88.9463617 C291.777675,88.873575 291.944869,88.7063808 292.017656,88.4935221 L300.137668,64.7472268 C300.338901,64.1587387 300.89203,63.7633067 301.513973,63.7633067 L309.958251,63.7633067 C310.580194,63.7633067 311.133323,64.1587387 311.334556,64.7472268 L319.454568,88.4935221 C319.584528,88.8735781 319.997977,89.0763213 320.378033,88.9463617 C320.590892,88.873575 320.758086,88.7063808 320.830873,88.4935221 L328.950885,64.7472268 C329.152118,64.1587387 329.705247,63.7633067 330.327189,63.7633067 L337.774054,63.7633067 C338.577378,63.7633067 339.2286,64.4145289 339.2286,65.2178522 C339.2286,65.3779643 339.202164,65.5369779 339.150359,65.6884776 L325.742095,104.89982 C325.540863,105.488309 324.987734,105.88374 324.365791,105.88374 L315.91965,105.88374 C315.297707,105.88374 314.744578,105.488309 314.543345,104.89982 L306.424264,81.1562481 C306.294305,80.7761921 305.880855,80.5734489 305.500799,80.7034086 C305.287941,80.7761953 305.120746,80.9433894 305.04796,81.1562481 L296.928879,104.89982 C296.727646,105.488309 296.174517,105.88374 295.552574,105.88374 Z M374.772623,103.399534 C371.175428,105.853277 366.828606,107.287755 362.147023,107.287755 C349.750709,107.287755 339.701511,97.230176 339.701511,84.8235236 C339.701511,72.4168712 349.750709,62.3592923 362.147023,62.3592923 C366.828606,62.3592923 371.175428,63.7937702 374.772623,66.2475132 L374.772623,65.1673212 C374.772623,64.3919054 375.400697,63.7633067 376.175467,63.7633067 L383.891111,63.7633067 C384.665881,63.7633067 385.293956,64.3919054 385.293956,65.1673212 L385.293956,104.479726 C385.293956,105.255142 384.665881,105.88374 383.891111,105.88374 L376.175467,105.88374 C375.400697,105.88374 374.772623,105.255142 374.772623,104.479726 L374.772623,103.399534 Z M362.848445,96.7576465 C369.433986,96.7576465 374.772623,91.4145577 374.772623,84.8235236 C374.772623,78.2324895 369.433986,72.8894007 362.848445,72.8894007 C356.262903,72.8894007 350.924267,78.2324895 350.924267,84.8235236 C350.924267,91.4145577 356.262903,96.7576465 362.848445,96.7576465 Z M425.275023,66.2475132 L425.275023,65.1673212 C425.275023,64.3919054 425.903097,63.7633067 426.677867,63.7633067 L434.393512,63.7633067 C435.168281,63.7633067 435.796356,64.3919054 435.796356,65.1673212 L435.796356,104.479726 L435.793713,104.479726 C435.606274,116.918379 425.473028,126.943957 413.000134,126.943957 C409.741742,126.943957 406.64302,126.25976 403.839572,125.027082 C403.096147,124.700198 402.133114,124.171622 400.950471,123.441354 C400.112728,122.924062 399.745248,121.894634 400.065817,120.963162 L402.553129,113.735799 C402.805443,113.002653 403.603821,112.613032 404.336357,112.865557 C404.518534,112.928358 404.685833,113.028047 404.827821,113.158407 C405.75444,114.009146 406.556339,114.615183 407.233516,114.97652 C408.952766,115.893897 410.91578,116.413849 413.000134,116.413849 C419.662072,116.413849 425.084465,111.102296 425.270109,104.479726 L425.275023,104.479726 L425.275023,103.399534 C421.677828,105.853277 417.331006,107.287755 412.649423,107.287755 C400.253109,107.287755 390.203911,97.230176 390.203911,84.8235236 C390.203911,72.4168712 400.253109,62.3592923 412.649423,62.3592923 C417.331006,62.3592923 421.677828,63.7937702 425.275023,66.2475132 Z M413.350845,96.7576465 C419.936386,96.7576465 425.275023,91.4145577 425.275023,84.8235236 C425.275023,78.2324895 419.936386,72.8894007 413.350845,72.8894007 C406.765303,72.8894007 401.426667,78.2324895 401.426667,84.8235236 C401.426667,91.4145577 406.765303,96.7576465 413.350845,96.7576465 Z M463.151823,107.287755 C450.755509,107.287755 440.706312,97.230176 440.706312,84.8235236 C440.706312,72.4168712 450.755509,62.3592923 463.151823,62.3592923 C475.548136,62.3592923 485.597334,72.4168712 485.597334,84.8235236 C485.597334,97.230176 475.548136,107.287755 463.151823,107.287755 Z M463.151823,96.7576465 C469.737364,96.7576465 475.076001,91.4145577 475.076001,84.8235236 C475.076001,78.2324895 469.737364,72.8894007 463.151823,72.8894007 C456.566281,72.8894007 451.227645,78.2324895 451.227645,84.8235236 C451.227645,91.4145577 456.566281,96.7576465 463.151823,96.7576465 Z M531.891201,82.7175019 L531.891201,104.479726 C531.891201,105.255142 531.263126,105.88374 530.488356,105.88374 L522.071289,105.88374 C521.29652,105.88374 520.668445,105.255142 520.668445,104.479726 L520.668445,83.4195091 L520.64378,83.4195091 C520.660131,83.1876351 520.668445,82.9535402 520.668445,82.7175019 C520.668445,77.2895915 516.271921,72.8894007 510.848534,72.8894007 C505.425147,72.8894007 501.028623,77.2895915 501.028623,82.7175019 C501.028623,82.9535402 501.036937,83.1876351 501.053288,83.4195091 L501.028623,83.4195091 L501.028623,104.479726 C501.028623,105.255142 500.400548,105.88374 499.625778,105.88374 L491.910134,105.88374 C491.135364,105.88374 490.507289,105.255142 490.507289,104.479726 L490.507289,65.1673212 C490.507289,64.3919054 491.135364,63.7633067 491.910134,63.7633067 L499.625778,63.7633067 C500.400548,63.7633067 501.028623,64.3919054 501.028623,65.1673212 L501.028623,65.2906269 C504.098423,63.430182 507.699234,62.3592923 511.549956,62.3592923 C522.784115,62.3592923 531.891201,71.4739732 531.891201,82.7175019 Z" id="logotype" fill="#ffffff"></path>
            </g>
        </g>
    </g>
</svg>